<svg id="Capa_1" data-name="Capa 1" xmlns="http://www.w3.org/2000/svg" viewBox="0 0 621.67 68.33"><defs><style>.cls-1{fill:#52499c;}</style></defs><title>logoff</title><path class="cls-1" d="M140.24,29.82h13.32V39.2H140.24V66.31H129.92V0.63h27.31V10h-17v19.8Z"/><path class="cls-1" d="M196.58,0.63h31.9V10h-10.8V66.31H207.37V10H196.58V0.63Z"/><path class="cls-1" d="M263.88,15.74v2.35c0,6.75-2.06,11-6.66,13.14v0.18c5.53,2.15,7.69,7,7.69,14v5.35c0,10.13-5.35,15.57-15.67,15.57H233V0.63h15.58C259.28,0.63,263.88,5.6,263.88,15.74ZM243.32,10V27.37h4c3.85,0,6.2-1.7,6.2-7V16.77c0-4.69-1.6-6.75-5.26-6.75h-5Zm0,26.74V56.93h5.91c3.47,0,5.35-1.59,5.35-6.48V44.73c0-6.1-2-8-6.66-8h-4.6Z"/><path class="cls-1" d="M270.28,16.4c0-10.51,5.53-16.51,15.66-16.51s15.68,6,15.68,16.51V50.55c0,10.5-5.54,16.5-15.68,16.5s-15.66-6-15.66-16.5V16.4Zm10.31,34.82c0,4.69,2.07,6.46,5.35,6.46s5.35-1.77,5.35-6.46V15.74c0-4.69-2.06-6.47-5.35-6.47s-5.35,1.78-5.35,6.47V51.21Z"/><path class="cls-1" d="M308.29,0.63h10.32V56.93h17v9.38H308.29V0.63Z"/><path class="cls-1" d="M350.44,29.82h13.32V39.2H350.44V66.31H340.11V0.63h27.31V10h-17v19.8Z"/><path class="cls-1" d="M382.73,28.31H396.9v9.38H382.73V56.93h17.82v9.38H372.41V0.63h28.15V10H382.73V28.31Z"/><path class="cls-1" d="M428.73,47.27h0.18l6.94-46.63h14.36V66.31h-9.76V19.22h-0.18l-6.94,47.09h-9.76l-7.5-46.44h-0.19V66.31h-9V0.63h14.36Z"/><path class="cls-1" d="M468.07,28.31h14.17v9.38H468.07V56.93h17.82v9.38H457.75V0.63h28.15V10H468.07V28.31Z"/><path class="cls-1" d="M501.68,18.74h-0.18V66.31H492.2V0.63h12.95L515.57,40h0.18V0.63h9.2V66.31h-10.6Z"/><path class="cls-1" d="M532.38,0.63H542.7V66.31H532.38V0.63Z"/><path class="cls-1" d="M559.6,18.74h-0.19V66.31h-9.29V0.63h12.95L573.49,40h0.19V0.63h9.19V66.31h-10.6Z"/><path class="cls-1" d="M589.46,16.4c0-10.51,5.53-16.51,15.66-16.51s15.68,6,15.68,16.51V50.55c0,10.5-5.54,16.5-15.68,16.5s-15.66-6-15.66-16.5V16.4Zm10.31,34.82c0,4.69,2.07,6.46,5.35,6.46s5.35-1.77,5.35-6.46V15.74c0-4.69-2.06-6.47-5.35-6.47s-5.35,1.78-5.35,6.47V51.21Z"/><polygon class="cls-1" points="191.43 1.23 191.43 0.16 182.12 0.16 182.12 11.68 191.43 1.23"/><path class="cls-1" d="M182.12,17.33V51.4c0,4.75-2,6.46-5.1,6.46s-5.1-1.7-5.1-6.46V0.16h-9.85V50.74c0,10.63,5,16.7,14.68,16.7s14.69-6.07,14.69-16.7V6.88Z"/><path class="cls-1" d="M28.79,64.86c0.24,1.51.83,2.05,3.65,2.05s3.33-.45,3.65-2.05c0.12-.59.43-2.59,0.74-4.56H28.07c0.3,1.92.61,3.87,0.72,4.56"/><path class="cls-1" d="M13.21,64.86c0.24,1.51.83,2.05,3.65,2.05s3.32-.45,3.65-2.05c0.12-.6.45-2.65,0.75-4.65a42.85,42.85,0,0,1-9-1.37l0.95,6"/><path class="cls-1" d="M77.06,64.86c0.24,1.51.83,2.05,3.65,2.05s3.33-.45,3.65-2.05c0.12-.59.44-2.59,0.75-4.56H76.34c0.31,1.92.61,3.87,0.72,4.56"/><path class="cls-1" d="M91.67,60.3c0.3,1.91.61,3.87,0.72,4.56,0.24,1.51.83,2.06,3.65,2.06s3.33-.45,3.65-2.06c0.12-.59.44-2.64,0.75-4.62-0.53,0-1.08.06-1.65,0.06H91.67Z"/><path class="cls-1" d="M101.39,11.66c-1.86-1.45-2.86-.79-3.89.77C90.56,23.07,79,21.27,76.55,19,84.47,12.4,88.91,10,86.65,6.83c-1.21-1.7-3-4.34-3.84-5.66s-2.6-1.69-4.42-.4c-1.09.77-9.07,8.07-17.29,11.82C52,16.72,8.31,33.66,4.89,35.12A7.12,7.12,0,0,0,.29,41.94a11.2,11.2,0,0,0,.18,1.61c1,4.74,6.5,12.33,23.86,12.33H98.78c6.9,0,8.7-3.36,8.63-9.58s1-27.17-6-34.64M56.28,48.71h-7s0.17-3.4-2.05-8.85c-1.41.46-4.06,1.41-4.88,1.7-0.67-1.72-2-4.38-2-4.38l4.69-1.55c-0.61-1-1.35-2.06-2.06-3-3.59,1.24-7.35,2.54-8.07,2.8-1-1.82-2.61-5.28-2.61-5.28L46.9,24.78s9.37,10,9.37,23.93m9.18-19,3.74-1s1.13,3.21,1.43,4.55c-1.6.37-3.12,0.73-3.85,1A51.79,51.79,0,0,1,68.7,48.71H61C61,32.16,51.82,23,51.82,23L65.24,18s4.87,5,5.38,6.06c-2.58.71-5.42,1.42-6.73,1.94a24.84,24.84,0,0,1,1.55,3.66"/></svg>